
*******The.Shining.1980.x264.AC3(5.1).Multisub.mkv-Zen_Bud**********

Format                           : Matroska
File size                        : 1.36 GiB
Duration                         : 1h 54mn
Overall bit rate                 : 1 697 Kbps
Writing application              : HandBrake 0.9.4

Video

Format                           : AVC
Duration                         : 1h 54mn
Bit rate                         : 1 279 Kbps
Width                            : 718 pixels
Height                           : 576 pixels
Display aspect ratio             : 16:9
Stream size                      : 1.02 GiB (75%)
Writing library                  : x264 core 79


Audio

Format                           : AC-3
Duration                         : 1h 54mn
Bit rate                         : 384 Kbps
Channel(s)                       : 6 channels
Channel positions                : Front: L C R, Side: L R, LFE
Sampling rate                    : 48.0 KHz
Bit depth                        : 16 bits
Stream size                      : 315 MiB (23%)
Language                         : English

Text #1
Language                         : English

Text #2
Language                         : Swedish

Text #3
Language                         : Norwegian

Text #4
Language                         : Danish

Text #5
Language                         : Finnish

Text #6
Language                         : Icelandic

